<svg id="Layer_1" data-name="Layer 1" xmlns="http://www.w3.org/2000/svg" viewBox="0 0 150 150"><defs><style>.cls-1{fill:none;stroke:#878787;stroke-linecap:round;stroke-linejoin:round;stroke-width:3.25px;}</style></defs><path class="cls-1" d="M87.7,33.77H62.3a9.1,9.1,0,0,0-6.45,2.69L43.55,48.88a8,8,0,0,0-2.3,5.6v64.69c0,3,2,5.39,4.56,5.39h58.38c2.52,0,4.56-2.41,4.56-5.39V54.48a8,8,0,0,0-2.3-5.6L94.15,36.46A9.1,9.1,0,0,0,87.7,33.77Z"/><circle class="cls-1" cx="75" cy="50.99" r="5.99"/><path class="cls-1" d="M60.42,78.07a5.79,5.79,0,1,0,5.79-5.78A5.78,5.78,0,0,0,60.42,78.07Z"/><path class="cls-1" d="M78.13,102.82A5.78,5.78,0,1,0,83.91,97,5.78,5.78,0,0,0,78.13,102.82Z"/><line class="cls-1" x1="89.25" y1="73.61" x2="60.31" y2="108.13"/><line class="cls-1" x1="75" y1="50.99" x2="75" y2="23.44"/></svg>